<svg width="16" height="20" viewBox="0 0 16 20" fill="none" xmlns="http://www.w3.org/2000/svg">
<path d="M15.4653 6.9038C12.4993 8.69085 12.7804 13.2241 15.938 14.6505L16.0005 14.7912C15.8839 15.1164 15.7734 15.4455 15.6398 15.7636C15.1602 16.9026 13.6903 19.2977 12.5665 19.7862C10.9707 20.4806 9.87627 19.1586 8.40796 19.1641C6.77282 19.1696 5.62582 20.6558 3.98681 19.6535C1.96162 18.4155 0.200573 14.0653 0.0252409 11.7418C-0.239688 8.24703 1.58006 4.48834 5.52464 4.97065C6.64769 5.10811 7.49036 5.97689 8.65821 5.67761C10.0114 5.33041 10.5853 4.72478 12.188 4.87167C13.4053 4.98322 14.9315 5.75145 15.4653 6.9038Z" fill="#292929"/>
<path d="M11.9174 0C12.136 2.31334 10.3518 4.69502 7.97821 4.63454C7.81523 2.28428 9.67746 0.287499 11.9174 0Z" fill="#292929"/>
</svg>
