<svg width="16" height="16" viewBox="0 0 16 16" fill="none" xmlns="http://www.w3.org/2000/svg">
<path d="M2.28569 15.99C2.16289 16.0034 1.90078 16.0034 1.77797 15.99C1.64057 15.9746 1.3426 15.875 1.2071 15.8181C1.16458 15.8003 0.995761 15.7431 1.01639 15.694L8.45738 8.375L11.4872 11.1369L2.77025 15.8575C2.63063 15.89 2.41961 15.9753 2.28601 15.9897L2.28569 15.99Z" fill="#292929"/>
<path d="M2.28597 0.00937495C2.43067 0.0246874 2.6252 0.103124 2.77021 0.141562L10.9166 4.5506L8.42624 6.97059L1.06363 0.290311C1.03317 0.266249 1.08077 0.244999 1.10044 0.232186C1.21468 0.156562 1.67004 0.0243749 1.80998 0.00937495C1.92803 -0.00312498 2.16793 -0.00312498 2.28597 0.00937495Z" fill="#292929"/>
<path d="M0.255765 0.977363L7.71199 7.70327L0.271949 14.9914C0.0967846 14.7567 0.0336366 14.4495 0 14.1654V1.83423C0.0231648 1.52736 0.131056 1.25361 0.255765 0.977051V0.977363Z" fill="#292929"/>
<path d="M11.8284 5.07004C11.8871 5.05504 12.0302 5.14442 12.0921 5.17442C12.6023 5.42129 13.1694 5.74754 13.6676 6.02816C14.5615 6.53129 15.3291 6.99034 15.2289 8.16753C15.1064 9.60721 13.4864 9.95877 12.4503 10.6169L9.17236 7.67222L11.8281 5.07004H11.8284Z" fill="#292929"/>
</svg>
