<svg width="42" height="22" viewBox="0 0 42 22" fill="none" xmlns="http://www.w3.org/2000/svg">
<g clip-path="url(#clip0_143_3899)">
<path d="M16.3836 10.3288C16.5219 10.1726 16.4632 9.98683 16.4632 9.82168C16.4677 6.96666 16.4659 4.11074 16.4668 1.25572C16.4668 0.622961 16.5093 0.568212 17.1314 0.381527C17.5203 0.264849 17.9127 0.158044 18.2988 0.033288C18.6036 -0.0645421 18.7238 0.0611113 18.7329 0.348319C18.7365 0.452432 18.7347 0.557442 18.7347 0.662452C18.7347 7.38939 18.7347 14.1163 18.7347 20.8442C18.7347 20.9788 18.7428 21.1143 18.7275 21.2472C18.7021 21.4698 18.5746 21.5631 18.3495 21.4967C17.8594 21.3513 17.3702 21.2032 16.88 21.0569C16.5762 20.9662 16.5455 20.697 16.4876 20.4529C15.8456 17.7495 15.2071 15.0462 14.566 12.3428C14.4711 11.9407 14.3671 11.5404 14.2558 11.0944C14.0271 11.2685 14.103 11.4597 14.103 11.6167C14.0976 14.2626 14.0994 16.9085 14.0985 19.5544C14.0985 20.1719 14.0506 20.2042 13.4474 20.022C13.0875 19.9134 12.7312 19.7905 12.3659 19.7061C11.9545 19.611 11.8225 19.3767 11.8252 18.9657C11.8396 16.5441 11.8324 14.1217 11.8324 11.7002C11.8324 8.66567 11.8405 5.63115 11.8243 2.59662C11.8215 2.14875 11.9527 1.89116 12.4075 1.79603C12.7303 1.72871 13.0423 1.61203 13.3597 1.51779C13.9502 1.34188 13.9529 1.34637 14.1121 1.95758C14.7975 4.60348 15.4838 7.25028 16.1729 9.89528C16.2118 10.0443 16.1946 10.2265 16.3845 10.3288H16.3836Z" fill="#292929"/>
<path d="M24.6035 10.7085C24.6035 8.60204 24.6035 6.49555 24.6035 4.38816C24.6035 3.63604 24.6903 2.89648 24.967 2.19013C25.4526 0.951542 26.4419 0.485727 27.7196 0.886023C29.4251 1.42095 30.6504 3.02572 30.7435 4.9554C30.805 6.23796 30.7842 7.52411 30.7851 8.80936C30.7869 11.23 30.7842 13.6506 30.7706 16.0703C30.7634 17.4364 30.3502 18.6552 29.3618 19.6452C28.8518 20.1559 28.2378 20.4924 27.5415 20.6773C26.4329 20.9726 25.5376 20.5597 25.0547 19.5213C24.7003 18.7602 24.6053 17.9462 24.6044 17.1177C24.6026 14.9807 24.6044 12.8446 24.6044 10.7076L24.6035 10.7085ZM26.8732 10.7498C26.8732 12.6158 26.8741 14.4826 26.8723 16.3486C26.8723 16.7381 26.8986 17.1258 26.9817 17.5055C27.0333 17.7397 27.112 17.9848 27.3977 18.035C27.6817 18.0853 27.9358 18.0009 28.1347 17.7873C28.2803 17.6302 28.3517 17.4337 28.4033 17.2281C28.51 16.8027 28.5036 16.3692 28.5036 15.9366C28.5054 13.2342 28.5063 10.5317 28.5045 7.82927C28.5045 6.8734 28.5018 5.91844 28.4901 4.96258C28.4856 4.58831 28.4358 4.21673 28.2459 3.88196C28.0633 3.55975 27.7703 3.42332 27.4113 3.47717C27.0794 3.52654 27.0062 3.81644 26.9682 4.08121C26.913 4.46445 26.8778 4.85308 26.8759 5.23991C26.8669 7.07625 26.8714 8.91258 26.8723 10.7489L26.8732 10.7498Z" fill="#292929"/>
<path d="M2.82133 12.1999C2.6034 12.8218 2.23898 13.3918 2.26792 14.0999C2.29685 14.8009 2.2652 15.5045 2.27786 16.2064C2.28329 16.5259 2.19557 16.6543 1.85557 16.5421C1.37088 16.3814 0.878956 16.2423 0.387937 16.1005C0.122081 16.0233 4.46164e-06 15.8761 4.46164e-06 15.5835C0.00904717 12.3704 0.00904717 9.15725 4.46164e-06 5.94501C-0.000899809 5.62908 0.135645 5.48278 0.415969 5.4029C0.878956 5.27186 1.34375 5.14621 1.79769 4.98825C2.1594 4.8617 2.286 4.94696 2.28058 5.33559C2.2643 6.4557 2.27425 7.57671 2.27605 8.69771C2.27605 8.84132 2.28871 8.98402 2.29776 9.16802C2.52292 9.07826 2.52202 8.90145 2.56632 8.76144C2.97596 7.45016 3.39192 6.14067 3.78257 4.8231C3.88385 4.48115 4.06922 4.29267 4.41104 4.20202C4.8903 4.07457 5.35871 3.91122 5.83526 3.7739C6.20963 3.66619 6.27203 3.73082 6.1599 4.10867C5.67249 5.75563 5.18509 7.40259 4.68503 9.04506C4.5946 9.34303 4.58556 9.62486 4.65338 9.92463C5.2086 12.4018 5.7575 14.879 6.3082 17.357C6.41671 17.8471 6.36607 17.8955 5.89675 17.7546C5.43648 17.6164 4.98163 17.4549 4.51503 17.3409C4.14156 17.2493 3.97156 17.042 3.89651 16.6731C3.60985 15.2532 3.29969 13.8387 2.99585 12.4224C2.98138 12.3533 2.95245 12.2878 2.93075 12.2205C2.89367 12.2133 2.8575 12.2061 2.82042 12.1999H2.82133Z" fill="#292929"/>
<path d="M38.7454 13.7625C38.6378 14.2031 38.5356 14.6124 38.4388 15.0235C38.2851 15.6778 38.1287 16.3312 37.9849 16.9873C37.9243 17.2637 37.7859 17.4306 37.4993 17.5078C37.02 17.6362 36.5516 17.7986 36.076 17.9404C35.6482 18.0679 35.5849 18.0095 35.6935 17.5841C36.2243 15.5001 36.7524 13.4151 37.2994 11.3347C37.4016 10.9469 37.4116 10.5906 37.3076 10.1984C36.7614 8.13319 36.2387 6.0626 35.7106 3.99291C35.6754 3.8538 35.5669 3.70032 35.6835 3.56749C35.8291 3.40144 35.9955 3.55043 36.142 3.59082C36.5905 3.71647 37.0291 3.87713 37.4794 3.9956C37.7823 4.07548 37.9261 4.2505 37.9912 4.54579C38.1892 5.45049 38.4045 6.35071 38.6133 7.25272C38.6495 7.40889 38.6902 7.56416 38.7327 7.74007C38.9515 7.66738 38.9353 7.49595 38.9714 7.3685C39.1839 6.6065 39.3973 5.84361 39.59 5.07622C39.6668 4.77017 39.8079 4.69029 40.1081 4.7935C40.5765 4.95506 41.0513 5.10315 41.5305 5.22791C41.9022 5.32394 42.0089 5.47742 41.8669 5.86515C41.3189 7.3667 40.8071 8.88173 40.27 10.3869C40.1795 10.6409 40.1777 10.8644 40.2691 11.1193C40.8107 12.6388 41.3298 14.1672 41.8778 15.685C42.0026 16.0296 41.9112 16.1741 41.5757 16.2639C41.0965 16.3913 40.6199 16.5331 40.1542 16.7019C39.816 16.8239 39.6641 16.7458 39.5782 16.394C39.3992 15.6544 39.1857 14.9221 38.9805 14.1888C38.9425 14.0542 38.9488 13.8944 38.7463 13.7616L38.7454 13.7625Z" fill="#292929"/>
</g>
<defs>
<clipPath id="clip0_143_3899">
<rect width="41.931" height="21.5172" fill="white"/>
</clipPath>
</defs>
</svg>
