<svg width="42" height="22" viewBox="0 0 42 22" fill="none" xmlns="http://www.w3.org/2000/svg">
<g clip-path="url(#clip0_327_2560)">
<path d="M16.3826 10.3288C16.521 10.1726 16.4622 9.98683 16.4622 9.82168C16.4667 6.96666 16.4649 4.11074 16.4658 1.25572C16.4658 0.622961 16.5083 0.568212 17.1304 0.381527C17.5193 0.264849 17.9117 0.158044 18.2979 0.033288C18.6026 -0.0645421 18.7229 0.0611113 18.7319 0.348319C18.7355 0.452432 18.7337 0.557442 18.7337 0.662452C18.7337 7.38939 18.7337 14.1163 18.7337 20.8442C18.7337 20.9788 18.7419 21.1143 18.7265 21.2472C18.7012 21.4698 18.5737 21.5631 18.3485 21.4967C17.8584 21.3513 17.3692 21.2032 16.8791 21.0569C16.5752 20.9662 16.5445 20.697 16.4866 20.4529C15.8446 17.7495 15.2062 15.0462 14.565 12.3428C14.4701 11.9407 14.3661 11.5404 14.2549 11.0944C14.0261 11.2685 14.102 11.4597 14.102 11.6167C14.0966 14.2626 14.0984 16.9085 14.0975 19.5544C14.0975 20.1719 14.0496 20.2042 13.4464 20.022C13.0865 19.9134 12.7303 19.7905 12.3649 19.7061C11.9535 19.611 11.8215 19.3767 11.8242 18.9657C11.8387 16.5441 11.8314 14.1217 11.8314 11.7002C11.8314 8.66567 11.8396 5.63115 11.8233 2.59662C11.8206 2.14875 11.9517 1.89116 12.4065 1.79603C12.7294 1.72871 13.0413 1.61203 13.3587 1.51779C13.9492 1.34188 13.9519 1.34637 14.1111 1.95758C14.7965 4.60348 15.4829 7.25028 16.1719 9.89528C16.2108 10.0443 16.1936 10.2265 16.3835 10.3288H16.3826Z" fill="#D9D9D9"/>
<path d="M24.6045 10.7085C24.6045 8.60204 24.6045 6.49555 24.6045 4.38816C24.6045 3.63604 24.6913 2.89648 24.968 2.19013C25.4536 0.951542 26.4429 0.485727 27.7206 0.886023C29.4261 1.42095 30.6513 3.02572 30.7445 4.9554C30.806 6.23796 30.7852 7.52411 30.7861 8.80936C30.7879 11.23 30.7852 13.6506 30.7716 16.0703C30.7644 17.4364 30.3511 18.6552 29.3628 19.6452C28.8528 20.1559 28.2388 20.4924 27.5425 20.6773C26.4338 20.9726 25.5386 20.5597 25.0557 19.5213C24.7012 18.7602 24.6063 17.9462 24.6054 17.1177C24.6036 14.9807 24.6054 12.8446 24.6054 10.7076L24.6045 10.7085ZM26.8742 10.7498C26.8742 12.6158 26.8751 14.4826 26.8733 16.3486C26.8733 16.7381 26.8995 17.1258 26.9827 17.5055C27.0343 17.7397 27.1129 17.9848 27.3987 18.035C27.6826 18.0853 27.9367 18.0009 28.1357 17.7873C28.2813 17.6302 28.3527 17.4337 28.4042 17.2281C28.5109 16.8027 28.5046 16.3692 28.5046 15.9366C28.5064 13.2342 28.5073 10.5317 28.5055 7.82927C28.5055 6.8734 28.5028 5.91844 28.491 4.96258C28.4865 4.58831 28.4368 4.21673 28.2469 3.88196C28.0642 3.55975 27.7712 3.42332 27.4123 3.47717C27.0804 3.52654 27.0071 3.81644 26.9692 4.08121C26.914 4.46445 26.8787 4.85308 26.8769 5.23991C26.8679 7.07625 26.8724 8.91258 26.8733 10.7489L26.8742 10.7498Z" fill="#D9D9D9"/>
<path d="M2.82133 12.1999C2.6034 12.8218 2.23898 13.3918 2.26792 14.0999C2.29685 14.8009 2.2652 15.5045 2.27786 16.2064C2.28329 16.5259 2.19557 16.6543 1.85557 16.5421C1.37088 16.3814 0.878956 16.2423 0.387937 16.1005C0.122081 16.0233 4.46164e-06 15.8761 4.46164e-06 15.5835C0.00904717 12.3704 0.00904717 9.15725 4.46164e-06 5.94501C-0.000899809 5.62908 0.135645 5.48278 0.415969 5.4029C0.878956 5.27186 1.34375 5.14621 1.79769 4.98825C2.1594 4.8617 2.286 4.94696 2.28058 5.33559C2.2643 6.4557 2.27425 7.57671 2.27605 8.69771C2.27605 8.84132 2.28871 8.98402 2.29776 9.16802C2.52292 9.07826 2.52202 8.90145 2.56632 8.76144C2.97596 7.45016 3.39192 6.14067 3.78257 4.8231C3.88385 4.48115 4.06922 4.29267 4.41104 4.20202C4.8903 4.07457 5.35871 3.91122 5.83526 3.7739C6.20963 3.66619 6.27203 3.73082 6.1599 4.10867C5.67249 5.75563 5.18509 7.40259 4.68503 9.04506C4.5946 9.34303 4.58556 9.62486 4.65338 9.92463C5.2086 12.4018 5.7575 14.879 6.3082 17.357C6.41671 17.8471 6.36607 17.8955 5.89675 17.7546C5.43648 17.6164 4.98163 17.4549 4.51503 17.3409C4.14156 17.2493 3.97156 17.042 3.89651 16.6731C3.60985 15.2532 3.29969 13.8387 2.99585 12.4224C2.98138 12.3533 2.95245 12.2878 2.93075 12.2205C2.89367 12.2133 2.8575 12.2061 2.82042 12.1999H2.82133Z" fill="#D9D9D9"/>
<path d="M38.7463 13.7625C38.6387 14.2031 38.5366 14.6124 38.4398 15.0235C38.2861 15.6778 38.1296 16.3312 37.9859 16.9873C37.9253 17.2637 37.7869 17.4306 37.5003 17.5078C37.021 17.6362 36.5526 17.7986 36.0769 17.9404C35.6492 18.0679 35.5859 18.0095 35.6944 17.5841C36.2252 15.5001 36.7533 13.4151 37.3004 11.3347C37.4026 10.9469 37.4125 10.5906 37.3086 10.1984C36.7624 8.13319 36.2397 6.0626 35.7116 3.99291C35.6763 3.8538 35.5678 3.70032 35.6845 3.56749C35.8301 3.40144 35.9965 3.55043 36.143 3.59082C36.5915 3.71647 37.03 3.87713 37.4804 3.9956C37.7833 4.07548 37.9271 4.2505 37.9922 4.54579C38.1902 5.45049 38.4054 6.35071 38.6143 7.25272C38.6505 7.40889 38.6912 7.56416 38.7337 7.74007C38.9525 7.66738 38.9362 7.49595 38.9724 7.3685C39.1849 6.6065 39.3983 5.84361 39.5909 5.07622C39.6678 4.77017 39.8089 4.69029 40.1091 4.7935C40.5775 4.95506 41.0522 5.10315 41.5315 5.22791C41.9032 5.32394 42.0099 5.47742 41.8679 5.86515C41.3199 7.3667 40.8081 8.88173 40.2709 10.3869C40.1805 10.6409 40.1787 10.8644 40.27 11.1193C40.8117 12.6388 41.3308 14.1672 41.8787 15.685C42.0035 16.0296 41.9122 16.1741 41.5767 16.2639C41.0974 16.3913 40.6209 16.5331 40.1552 16.7019C39.817 16.8239 39.6651 16.7458 39.5792 16.394C39.4001 15.6544 39.1867 14.9221 38.9815 14.1888C38.9435 14.0542 38.9498 13.8944 38.7472 13.7616L38.7463 13.7625Z" fill="#D9D9D9"/>
</g>
<defs>
<clipPath id="clip0_327_2560">
<rect width="41.931" height="21.5172" fill="white"/>
</clipPath>
</defs>
</svg>
